<svg width="347" height="174" viewBox="0 0 347 174" fill="none" xmlns="http://www.w3.org/2000/svg">
<rect width="347" height="174" fill="white"/>
<path d="M158.274 146.406H155.484V137.486L149 120H151.869L154.541 127.191C154.645 127.479 155.444 129.824 156.938 134.225C157.907 131.212 159.57 126.471 161.928 120H164.757L158.274 137.486V146.406Z" fill="white"/>
<path d="M151.189 86H163.307V88.3028L153.831 109.028H163.156V111.368H151V109.028L160.438 88.3783H151.189V86Z" fill="white"/>
<path d="M161.126 52H164.091L158.47 64.9167L164.091 77.8333H161.126L157.084 68.0305L153.003 77.8333H150L155.621 64.9167L150 52H152.964L157.084 61.8413L161.126 52Z" fill="white"/>
<path d="M157.482 36.3288H153.707V46.6243H151V21H157.215C159.249 21 160.787 21.5211 161.829 22.5634C162.872 23.5802 163.393 24.9784 163.393 26.7578V30.5328C163.393 33.2783 162.3 35.0578 160.113 35.8712L164.193 46.6243H161.219L157.482 36.3288ZM153.707 33.9647H157.101C159.491 33.9647 160.685 32.808 160.685 30.4947V26.8722C160.685 24.5589 159.491 23.4023 157.101 23.4023H153.707V33.9647Z" fill="white"/>
<path d="M123 20H146.614V146.213H123V20ZM210.139 20H235.749L188.853 82.9185L239 147L212.135 146.213L163.576 83.2942L210.139 20Z" fill="white"/>
<path fill-rule="evenodd" clip-rule="evenodd" d="M190.75 126.602C190.132 124.484 187.097 124.484 186.48 126.602C185.769 129.039 185.055 130.422 184.096 131.381C183.137 132.34 181.755 133.054 179.317 133.764C177.199 134.382 177.199 137.417 179.317 138.034C181.755 138.745 183.137 139.459 184.096 140.418C185.055 141.377 185.769 142.759 186.48 145.197C187.097 147.314 190.132 147.314 190.75 145.197C191.46 142.759 192.174 141.377 193.133 140.418C194.092 139.459 195.475 138.745 197.912 138.034C200.03 137.417 200.03 134.382 197.912 133.764C195.475 133.054 194.092 132.34 193.133 131.381C192.174 130.422 191.46 129.039 190.75 126.602ZM186.571 133.855C187.414 133.014 188.069 132.034 188.615 130.901C189.161 132.034 189.815 133.014 190.659 133.855C191.502 134.699 192.48 135.353 193.613 135.899C192.48 136.445 191.502 137.1 190.659 137.943C189.815 138.787 189.161 139.765 188.615 140.897C188.069 139.765 187.414 138.787 186.571 137.943C185.729 137.1 184.749 136.445 183.617 135.899C184.749 135.353 185.729 134.699 186.571 133.855Z" fill="white"/>
<path fill-rule="evenodd" clip-rule="evenodd" d="M176.621 123.382C176.166 124.096 175.844 124.712 175.653 125.288C175.55 125.594 175.487 125.89 175.46 126.182C175.441 126.385 175.441 126.588 175.46 126.791C175.487 127.084 175.551 127.379 175.653 127.689C175.844 128.263 176.166 128.877 176.621 129.591C176.671 129.672 176.722 129.752 176.776 129.833C177.153 130.405 176.425 131.135 175.856 130.759C175.774 130.704 175.693 130.652 175.614 130.601C174.902 130.144 174.288 129.821 173.716 129.63C173.409 129.527 173.115 129.464 172.825 129.437C172.624 129.418 172.422 129.418 172.219 129.437C171.929 129.464 171.635 129.527 171.329 129.63C170.756 129.821 170.142 130.144 169.43 130.601C169.351 130.652 169.271 130.704 169.19 130.759C168.62 131.135 167.893 130.405 168.27 129.833C168.322 129.751 168.375 129.672 168.425 129.591C168.873 128.886 169.194 128.277 169.383 127.708C169.484 127.404 169.549 127.112 169.575 126.823C169.594 126.608 169.594 126.396 169.573 126.181C169.544 125.892 169.477 125.6 169.372 125.295C169.178 124.73 168.852 124.124 168.396 123.423C168.345 123.344 168.291 123.265 168.236 123.185C167.855 122.616 168.572 121.877 169.146 122.248C169.229 122.301 169.309 122.353 169.39 122.402C170.116 122.857 170.739 123.178 171.32 123.365C171.63 123.465 171.927 123.526 172.223 123.549C172.414 123.564 172.603 123.564 172.793 123.547C173.089 123.521 173.387 123.458 173.695 123.354C174.274 123.162 174.895 122.835 175.614 122.373C175.693 122.322 175.774 122.269 175.856 122.215C176.425 121.839 177.153 122.569 176.776 123.141C176.745 123.188 176.715 123.234 176.685 123.279C176.664 123.314 176.642 123.347 176.621 123.382Z" fill="white"/>
<path fill-rule="evenodd" clip-rule="evenodd" d="M192.771 20.2022C192.153 18.0847 189.119 18.0847 188.501 20.2022C187.791 22.64 187.077 24.0225 186.118 24.9815C185.159 25.9405 183.776 26.6545 181.338 27.365C179.221 27.9827 179.221 31.0172 181.338 31.635C183.776 32.3455 185.159 33.0595 186.118 34.0185C187.077 34.9775 187.791 36.36 188.501 38.7977C189.119 40.9152 192.153 40.9152 192.771 38.7977C193.482 36.36 194.196 34.9775 195.155 34.0185C196.114 33.0595 197.496 32.3455 199.934 31.635C202.051 31.0172 202.051 27.9827 199.934 27.365C197.496 26.6545 196.114 25.9405 195.155 24.9815C194.196 24.0225 193.482 22.64 192.771 20.2022ZM188.592 27.456C189.436 26.6142 190.09 25.6342 190.636 24.502C191.182 25.6342 191.837 26.6142 192.68 27.456C193.524 28.2995 194.502 28.954 195.634 29.5C194.502 30.046 193.524 30.7005 192.68 31.544C191.837 32.3875 191.182 33.3657 190.636 34.498C190.09 33.3657 189.436 32.3875 188.592 31.544C187.75 30.7005 186.77 30.046 185.638 29.5C186.77 28.954 187.75 28.2995 188.592 27.456Z" fill="white"/>
<path fill-rule="evenodd" clip-rule="evenodd" d="M178.491 39.5205C178.036 40.2345 177.714 40.8505 177.523 41.4263C177.42 41.7325 177.357 42.0283 177.331 42.3205C177.311 42.5235 177.311 42.7265 177.331 42.9295C177.357 43.2218 177.422 43.5175 177.523 43.8273C177.714 44.4013 178.036 45.0155 178.491 45.7295C178.542 45.81 178.593 45.8905 178.647 45.971C179.023 46.5433 178.295 47.273 177.726 46.8968C177.644 46.8425 177.563 46.79 177.485 46.7393C176.772 46.2825 176.158 45.9588 175.586 45.768C175.28 45.6648 174.986 45.6018 174.695 45.5755C174.494 45.5563 174.293 45.5563 174.09 45.5755C173.799 45.6018 173.505 45.6648 173.199 45.768C172.627 45.9588 172.013 46.2825 171.3 46.7393C171.222 46.79 171.141 46.8425 171.061 46.8968C170.49 47.273 169.764 46.5433 170.14 45.971C170.192 45.8888 170.245 45.81 170.296 45.7295C170.744 45.0243 171.064 44.4153 171.253 43.8465C171.354 43.542 171.419 43.2498 171.445 42.961C171.465 42.7458 171.465 42.534 171.444 42.3188C171.414 42.03 171.348 41.7378 171.243 41.4333C171.048 40.868 170.723 40.2625 170.266 39.5608C170.215 39.482 170.161 39.4033 170.107 39.3228C169.725 38.754 170.443 38.0155 171.017 38.3865C171.099 38.439 171.179 38.4915 171.26 38.5405C171.986 38.9955 172.609 39.3158 173.19 39.503C173.5 39.6028 173.798 39.664 174.093 39.6868C174.284 39.7025 174.473 39.7025 174.664 39.685C174.959 39.6588 175.257 39.5958 175.565 39.4925C176.144 39.3 176.765 38.9728 177.485 38.5108C177.563 38.46 177.644 38.4075 177.726 38.3533C178.295 37.977 179.023 38.7068 178.647 39.279C178.615 39.3263 178.585 39.3718 178.556 39.4173C178.535 39.4523 178.512 39.4855 178.491 39.5205Z" fill="white"/>
<path d="M188.854 82.9189L239 147L212.135 146.213L163.576 83.2939L210.14 20H235.749L188.854 82.9189ZM186.479 126.602C187.097 124.484 190.132 124.484 190.75 126.602C191.46 129.039 192.174 130.422 193.133 131.381C194.092 132.34 195.475 133.054 197.912 133.765C200.03 134.382 200.03 137.416 197.912 138.034C195.475 138.745 194.092 139.459 193.133 140.418C192.174 141.377 191.46 142.76 190.75 145.197C190.132 147.315 187.097 147.315 186.479 145.197C185.769 142.76 185.056 141.377 184.097 140.418C183.138 139.459 181.755 138.745 179.317 138.034C177.2 137.416 177.2 134.382 179.317 133.765C181.755 133.054 183.138 132.34 184.097 131.381C185.056 130.422 185.769 129.039 186.479 126.602ZM154.541 127.191C154.646 127.481 155.445 129.825 156.938 134.225C157.907 131.212 159.57 126.47 161.928 120H164.758L158.273 137.486V146.406H155.483V137.486L149 120H151.868L154.541 127.191ZM146.614 146.213H123V20H146.614V146.213ZM188.614 130.901C188.068 132.034 187.414 133.014 186.57 133.855C185.729 134.699 184.749 135.353 183.617 135.899C184.749 136.445 185.729 137.1 186.57 137.943C187.414 138.787 188.068 139.765 188.614 140.897C189.16 139.765 189.816 138.787 190.659 137.943C191.503 137.1 192.48 136.445 193.612 135.899C192.48 135.353 191.503 134.699 190.659 133.855C189.816 133.014 189.16 132.034 188.614 130.901ZM175.855 122.216C176.424 121.84 177.152 122.568 176.776 123.141C176.745 123.188 176.715 123.234 176.686 123.279C176.665 123.314 176.642 123.348 176.621 123.383C176.166 124.097 175.844 124.712 175.653 125.288C175.55 125.594 175.486 125.89 175.46 126.183C175.441 126.386 175.441 126.589 175.46 126.792C175.486 127.084 175.552 127.38 175.653 127.689C175.844 128.263 176.166 128.878 176.621 129.592C176.672 129.672 176.722 129.753 176.776 129.833C177.153 130.405 176.424 131.135 175.855 130.759C175.773 130.705 175.693 130.652 175.614 130.602C174.902 130.145 174.288 129.821 173.716 129.63C173.41 129.527 173.116 129.464 172.825 129.437C172.624 129.418 172.423 129.418 172.22 129.437C171.929 129.464 171.635 129.527 171.329 129.63C170.757 129.821 170.142 130.145 169.43 130.602C169.351 130.652 169.271 130.705 169.19 130.759C168.62 131.135 167.893 130.405 168.27 129.833C168.322 129.751 168.375 129.672 168.426 129.592C168.874 128.887 169.194 128.278 169.383 127.709C169.484 127.405 169.549 127.112 169.575 126.823C169.594 126.608 169.594 126.396 169.573 126.181C169.543 125.892 169.477 125.599 169.372 125.295C169.178 124.73 168.852 124.124 168.396 123.423C168.345 123.344 168.291 123.265 168.236 123.185C167.855 122.616 168.573 121.878 169.146 122.249C169.229 122.301 169.309 122.353 169.39 122.402C170.116 122.857 170.739 123.178 171.32 123.365C171.63 123.465 171.927 123.526 172.223 123.549C172.413 123.565 172.602 123.564 172.793 123.547C173.089 123.521 173.386 123.458 173.694 123.354C174.274 123.162 174.895 122.835 175.614 122.373C175.693 122.322 175.773 122.27 175.855 122.216ZM163.307 88.3027L153.831 109.027H163.155V111.368H151V109.027L160.438 88.3779H151.188V86H163.307V88.3027ZM157.084 61.8418L161.126 52H164.091L158.47 64.917L164.091 77.833H161.126L157.084 68.0302L153.003 77.833H150L155.621 64.917L150 52H152.965L157.084 61.8418ZM177.727 38.3535C178.295 37.9775 179.023 38.7071 178.646 39.2793C178.615 39.3263 178.585 39.3716 178.556 39.417C178.535 39.4519 178.512 39.4855 178.491 39.5205C178.036 40.2345 177.714 40.851 177.523 41.4267C177.42 41.7327 177.357 42.0282 177.331 42.3203C177.312 42.5233 177.312 42.7266 177.331 42.9296C177.357 43.2218 177.422 43.5174 177.523 43.8271C177.714 44.4011 178.036 45.0155 178.491 45.7295C178.542 45.8098 178.592 45.8903 178.646 45.9707C179.023 46.5429 178.295 47.2726 177.727 46.8964C177.644 46.8422 177.563 46.79 177.484 46.7392C176.772 46.2826 176.158 45.9592 175.586 45.7685C175.28 45.6653 174.986 45.6014 174.695 45.5752C174.494 45.5559 174.293 45.5559 174.09 45.5752C173.799 45.6014 173.505 45.6653 173.199 45.7685C172.627 45.9593 172.012 46.2825 171.3 46.7392C171.221 46.7899 171.141 46.8423 171.061 46.8964C170.49 47.2727 169.763 46.5429 170.14 45.9707C170.192 45.8885 170.245 45.8099 170.296 45.7295C170.744 45.0243 171.064 44.4153 171.253 43.8466C171.354 43.5421 171.419 43.2496 171.445 42.9609C171.465 42.7458 171.464 42.5343 171.443 42.3193C171.414 42.0306 171.347 41.738 171.242 41.4336C171.048 40.8683 170.722 40.2623 170.266 39.5605C170.215 39.4819 170.161 39.4035 170.106 39.3232C169.725 38.7545 170.443 38.0158 171.017 38.3867C171.099 38.4392 171.179 38.492 171.26 38.541C171.986 38.996 172.609 39.3156 173.19 39.5029C173.5 39.6026 173.797 39.6637 174.093 39.6865C174.284 39.7022 174.473 39.703 174.664 39.6855C174.96 39.6592 175.258 39.5954 175.565 39.4921C176.144 39.2996 176.765 38.9725 177.484 38.5107C177.563 38.4599 177.644 38.4077 177.727 38.3535ZM157.216 21C159.249 21 160.787 21.5213 161.829 22.5634C162.871 23.5802 163.393 24.9784 163.393 26.7578V30.5332C163.393 33.2785 162.299 35.0576 160.113 35.8711L164.193 46.624H161.219L157.482 36.3291H153.707V46.624H151V21H157.216ZM188.501 20.2021C189.119 18.0848 192.154 18.0848 192.771 20.2021C193.482 22.6396 194.195 24.0224 195.154 24.9814C196.113 25.9404 197.496 26.6547 199.934 27.3652C202.051 27.9829 202.051 31.017 199.934 31.6347C197.496 32.3452 196.113 33.0595 195.154 34.0185C194.195 34.9775 193.482 36.3603 192.771 38.7978C192.154 40.9153 189.119 40.9153 188.501 38.7978C187.79 36.3601 187.076 34.9775 186.117 34.0185C185.158 33.0597 183.776 32.3451 181.339 31.6347C179.221 31.017 179.221 27.9829 181.339 27.3652C183.776 26.6548 185.158 25.9403 186.117 24.9814C187.076 24.0224 187.79 22.6398 188.501 20.2021ZM190.636 24.5019C190.09 25.6341 189.435 26.6143 188.592 27.456C187.75 28.2994 186.77 28.954 185.638 29.5C186.77 30.0459 187.75 30.7005 188.592 31.5439C189.435 32.3873 190.09 33.3659 190.636 34.498C191.182 33.3658 191.836 32.3874 192.68 31.5439C193.523 30.7005 194.502 30.0459 195.634 29.5C194.502 28.954 193.523 28.2994 192.68 27.456C191.836 26.6143 191.182 25.634 190.636 24.5019ZM153.707 33.9648H157.101C159.49 33.9648 160.685 32.8082 160.686 30.4951V26.872C160.685 24.5589 159.49 23.4023 157.101 23.4023H153.707V33.9648Z" fill="#171717"/>
</svg>
