999
"DXF R12 Output" (www.mydxf.blogspot.com)
 0 
SECTION
 2 
HEADER
 9 
$ACADVER
 1 
AC1009
 9 
$EXTMIN
 10 
 0 
 20 
 0 
 9 
$EXTMAX
 10 
 8.5 
 20 
 11 
 0 
ENDSEC
 0 
SECTION
 2 
ENTITIES
0
POLYLINE
8
Layer 1
62
7
70
0
10
0.000000
20
0.000000
66
1
0
VERTEX
8
Layer 1
10
0.000000
20
46.037500
70
0
0
VERTEX
8
Layer 1
10
91.810301
20
46.037500
70
0
0
VERTEX
8
Layer 1
10
91.810301
20
0.000058
70
0
0
VERTEX
8
Layer 1
10
0.000000
20
0.000058
70
0
0
VERTEX
8
Layer 1
10
0.000000
20
46.037500
70
0
0
SEQEND
8
Layer 1
0
POLYLINE
8
Layer 1
62
7
70
1
10
0.000000
20
0.000000
66
1
0
VERTEX
8
Layer 1
10
41.876610
20
7.300961
70
0
0
VERTEX
8
Layer 1
10
41.138423
20
7.300961
70
0
0
VERTEX
8
Layer 1
10
41.138423
20
9.661042
70
0
0
VERTEX
8
Layer 1
10
39.422867
20
14.287540
70
0
0
VERTEX
8
Layer 1
10
40.181956
20
14.287540
70
0
0
VERTEX
8
Layer 1
10
40.888921
20
12.384924
70
0
0
VERTEX
8
Layer 1
10
41.523127
20
10.523847
70
0
0
VERTEX
8
Layer 1
10
42.843396
20
14.287540
70
0
0
VERTEX
8
Layer 1
10
43.591901
20
14.287540
70
0
0
VERTEX
8
Layer 1
10
41.876610
20
9.661042
70
0
0
VERTEX
8
Layer 1
10
41.876610
20
7.300961
70
0
0
VERTEX
8
Layer 1
10
41.876610
20
7.300961
70
0
0
SEQEND
8
Layer 1
0
POLYLINE
8
Layer 1
62
7
70
1
10
0.000000
20
0.000000
66
1
0
VERTEX
8
Layer 1
10
40.002039
20
23.283362
70
0
0
VERTEX
8
Layer 1
10
43.208256
20
23.283362
70
0
0
VERTEX
8
Layer 1
10
43.208256
20
22.674080
70
0
0
VERTEX
8
Layer 1
10
40.701067
20
17.190545
70
0
0
VERTEX
8
Layer 1
10
43.168304
20
17.190545
70
0
0
VERTEX
8
Layer 1
10
43.168304
20
16.571420
70
0
0
VERTEX
8
Layer 1
10
39.952033
20
16.571420
70
0
0
VERTEX
8
Layer 1
10
39.952033
20
17.190545
70
0
0
VERTEX
8
Layer 1
10
42.449167
20
22.654104
70
0
0
VERTEX
8
Layer 1
10
40.002039
20
22.654104
70
0
0
VERTEX
8
Layer 1
10
40.002039
20
23.283362
70
0
0
VERTEX
8
Layer 1
10
40.002039
20
23.283362
70
0
0
SEQEND
8
Layer 1
0
POLYLINE
8
Layer 1
62
7
70
1
10
0.000000
20
0.000000
66
1
0
VERTEX
8
Layer 1
10
42.631200
20
32.279184
70
0
0
VERTEX
8
Layer 1
10
43.415689
20
32.279184
70
0
0
VERTEX
8
Layer 1
10
41.928468
20
28.861645
70
0
0
VERTEX
8
Layer 1
10
43.415689
20
25.444132
70
0
0
VERTEX
8
Layer 1
10
42.631200
20
25.444132
70
0
0
VERTEX
8
Layer 1
10
41.561756
20
28.037786
70
0
0
VERTEX
8
Layer 1
10
40.481993
20
25.444132
70
0
0
VERTEX
8
Layer 1
10
39.687450
20
25.444132
70
0
0
VERTEX
8
Layer 1
10
41.174671
20
28.861645
70
0
0
VERTEX
8
Layer 1
10
39.687450
20
32.279184
70
0
0
VERTEX
8
Layer 1
10
40.471674
20
32.279184
70
0
0
VERTEX
8
Layer 1
10
41.561756
20
29.675343
70
0
0
VERTEX
8
Layer 1
10
42.631200
20
32.279184
70
0
0
VERTEX
8
Layer 1
10
42.631200
20
32.279184
70
0
0
SEQEND
8
Layer 1
0
POLYLINE
8
Layer 1
62
7
70
1
10
0.000000
20
0.000000
66
1
0
VERTEX
8
Layer 1
10
41.667060
20
36.425517
70
0
0
VERTEX
8
Layer 1
10
40.668259
20
36.425517
70
0
0
VERTEX
8
Layer 1
10
40.668259
20
33.701503
70
0
0
VERTEX
8
Layer 1
10
39.952033
20
33.701503
70
0
0
VERTEX
8
Layer 1
10
39.952033
20
40.481257
70
0
0
VERTEX
8
Layer 1
10
41.596416
20
40.481257
70
0
0
VERTEX
8
Layer 1
10
42.305234
20
40.377848
70
0
0
VERTEX
8
Layer 1
10
42.817202
20
40.067608
70
0
0
VERTEX
8
Layer 1
10
43.127591
20
39.588389
70
0
0
VERTEX
8
Layer 1
10
43.231010
20
38.957841
70
0
0
VERTEX
8
Layer 1
10
43.231010
20
37.959040
70
0
0
VERTEX
8
Layer 1
10
43.014085
20
37.061115
70
0
0
VERTEX
8
Layer 1
10
42.363178
20
36.546590
70
0
0
VERTEX
8
Layer 1
10
43.442677
20
33.701503
70
0
0
VERTEX
8
Layer 1
10
42.655807
20
33.701503
70
0
0
VERTEX
8
Layer 1
10
41.667060
20
36.425517
70
0
0
VERTEX
8
Layer 1
10
41.667060
20
36.425517
70
0
0
SEQEND
8
Layer 1
0
POLYLINE
8
Layer 1
62
7
70
1
10
0.000000
20
0.000000
66
1
0
VERTEX
8
Layer 1
10
40.668259
20
37.051018
70
0
0
VERTEX
8
Layer 1
10
41.566254
20
37.051018
70
0
0
VERTEX
8
Layer 1
10
42.277519
20
37.280547
70
0
0
VERTEX
8
Layer 1
10
42.514519
20
37.969121
70
0
0
VERTEX
8
Layer 1
10
42.514519
20
38.927573
70
0
0
VERTEX
8
Layer 1
10
42.277519
20
39.616133
70
0
0
VERTEX
8
Layer 1
10
41.566254
20
39.845649
70
0
0
VERTEX
8
Layer 1
10
40.668259
20
39.845649
70
0
0
VERTEX
8
Layer 1
10
40.668259
20
37.051018
70
0
0
VERTEX
8
Layer 1
10
40.668259
20
37.051018
70
0
0
SEQEND
8
Layer 1
0
POLYLINE
8
Layer 1
62
7
70
1
10
0.000000
20
0.000000
66
1
0
VERTEX
8
Layer 1
10
32.543709
20
40.745840
70
0
0
VERTEX
8
Layer 1
10
38.791572
20
40.745840
70
0
0
VERTEX
8
Layer 1
10
38.791572
20
7.352026
70
0
0
VERTEX
8
Layer 1
10
32.543709
20
7.352026
70
0
0
VERTEX
8
Layer 1
10
32.543709
20
40.745840
70
0
0
VERTEX
8
Layer 1
10
32.543709
20
40.745840
70
0
0
SEQEND
8
Layer 1
0
POLYLINE
8
Layer 1
62
7
70
1
10
0.000000
20
0.000000
66
1
0
VERTEX
8
Layer 1
10
55.599207
20
40.745840
70
0
0
VERTEX
8
Layer 1
10
62.375178
20
40.745840
70
0
0
VERTEX
8
Layer 1
10
49.967293
20
24.098675
70
0
0
VERTEX
8
Layer 1
10
63.235337
20
7.143799
70
0
0
VERTEX
8
Layer 1
10
56.127315
20
7.352026
70
0
0
VERTEX
8
Layer 1
10
43.279429
20
23.999271
70
0
0
VERTEX
8
Layer 1
10
55.599207
20
40.745840
70
0
0
VERTEX
8
Layer 1
10
55.599207
20
40.745840
70
0
0
SEQEND
8
Layer 1
0
POLYLINE
8
Layer 1
62
7
70
1
10
0.000000
20
0.000000
66
1
0
VERTEX
8
Layer 1
10
50.469207
20
12.540763
70
0
0
VERTEX
8
Layer 1
10
50.246656
20
12.855981
70
0
0
VERTEX
8
Layer 1
10
49.904223
20
12.961053
70
0
0
VERTEX
8
Layer 1
10
49.561841
20
12.855981
70
0
0
VERTEX
8
Layer 1
10
49.339438
20
12.540763
70
0
0
VERTEX
8
Layer 1
10
49.048661
20
11.761897
70
0
0
VERTEX
8
Layer 1
10
48.708672
20
11.276321
70
0
0
VERTEX
8
Layer 1
10
48.223195
20
10.936365
70
0
0
VERTEX
8
Layer 1
10
47.444230
20
10.645820
70
0
0
VERTEX
8
Layer 1
10
47.129012
20
10.423268
70
0
0
VERTEX
8
Layer 1
10
47.023940
20
10.080836
70
0
0
VERTEX
8
Layer 1
10
47.129012
20
9.738453
70
0
0
VERTEX
8
Layer 1
10
47.444230
20
9.516050
70
0
0
VERTEX
8
Layer 1
10
48.223195
20
9.225273
70
0
0
VERTEX
8
Layer 1
10
48.708672
20
8.885284
70
0
0
VERTEX
8
Layer 1
10
49.048661
20
8.399808
70
0
0
VERTEX
8
Layer 1
10
49.339438
20
7.620842
70
0
0
VERTEX
8
Layer 1
10
49.561841
20
7.305773
70
0
0
VERTEX
8
Layer 1
10
49.904223
20
7.200750
70
0
0
VERTEX
8
Layer 1
10
50.246656
20
7.305773
70
0
0
VERTEX
8
Layer 1
10
50.469207
20
7.620842
70
0
0
VERTEX
8
Layer 1
10
50.759752
20
8.399808
70
0
0
VERTEX
8
Layer 1
10
51.099709
20
8.885284
70
0
0
VERTEX
8
Layer 1
10
51.585284
20
9.225273
70
0
0
VERTEX
8
Layer 1
10
52.364151
20
9.516050
70
0
0
VERTEX
8
Layer 1
10
52.679368
20
9.738453
70
0
0
VERTEX
8
Layer 1
10
52.784441
20
10.080836
70
0
0
VERTEX
8
Layer 1
10
52.679368
20
10.423268
70
0
0
VERTEX
8
Layer 1
10
52.364151
20
10.645820
70
0
0
VERTEX
8
Layer 1
10
51.585284
20
10.936365
70
0
0
VERTEX
8
Layer 1
10
51.099709
20
11.276321
70
0
0
VERTEX
8
Layer 1
10
50.759752
20
11.761897
70
0
0
VERTEX
8
Layer 1
10
50.469207
20
12.540763
70
0
0
VERTEX
8
Layer 1
10
50.469207
20
12.540763
70
0
0
SEQEND
8
Layer 1
0
POLYLINE
8
Layer 1
62
7
70
1
10
0.000000
20
0.000000
66
1
0
VERTEX
8
Layer 1
10
49.363515
20
10.621743
70
0
0
VERTEX
8
Layer 1
10
49.904323
20
11.403321
70
0
0
VERTEX
8
Layer 1
10
50.445130
20
10.621743
70
0
0
VERTEX
8
Layer 1
10
51.226708
20
10.080935
70
0
0
VERTEX
8
Layer 1
10
50.445130
20
9.540127
70
0
0
VERTEX
8
Layer 1
10
49.904323
20
8.758549
70
0
0
VERTEX
8
Layer 1
10
49.363515
20
9.540127
70
0
0
VERTEX
8
Layer 1
10
48.581937
20
10.080935
70
0
0
VERTEX
8
Layer 1
10
49.363515
20
10.621743
70
0
0
VERTEX
8
Layer 1
10
49.363515
20
10.621743
70
0
0
SEQEND
8
Layer 1
0
POLYLINE
8
Layer 1
62
7
70
1
10
0.000000
20
0.000000
66
1
0
VERTEX
8
Layer 1
10
46.730914
20
13.392720
70
0
0
VERTEX
8
Layer 1
10
46.474798
20
12.888425
70
0
0
VERTEX
8
Layer 1
10
46.423733
20
12.651888
70
0
0
VERTEX
8
Layer 1
10
46.423733
20
12.490757
70
0
0
VERTEX
8
Layer 1
10
46.474798
20
12.253161
70
0
0
VERTEX
8
Layer 1
10
46.730914
20
11.749924
70
0
0
VERTEX
8
Layer 1
10
46.771924
20
11.685895
70
0
0
VERTEX
8
Layer 1
10
46.744077
20
11.469334
70
0
0
VERTEX
8
Layer 1
10
46.528508
20
11.440892
70
0
0
VERTEX
8
Layer 1
10
46.464479
20
11.482696
70
0
0
VERTEX
8
Layer 1
10
45.962300
20
11.739606
70
0
0
VERTEX
8
Layer 1
10
45.726557
20
11.790670
70
0
0
VERTEX
8
Layer 1
10
45.566220
20
11.790670
70
0
0
VERTEX
8
Layer 1
10
45.330741
20
11.739606
70
0
0
VERTEX
8
Layer 1
10
44.828298
20
11.482696
70
0
0
VERTEX
8
Layer 1
10
44.764798
20
11.440892
70
0
0
VERTEX
8
Layer 1
10
44.549130
20
11.469334
70
0
0
VERTEX
8
Layer 1
10
44.521381
20
11.685895
70
0
0
VERTEX
8
Layer 1
10
44.562392
20
11.749924
70
0
0
VERTEX
8
Layer 1
10
44.815862
20
12.248134
70
0
0
VERTEX
8
Layer 1
10
44.866662
20
12.482290
70
0
0
VERTEX
8
Layer 1
10
44.866133
20
12.652152
70
0
0
VERTEX
8
Layer 1
10
44.812952
20
12.886573
70
0
0
VERTEX
8
Layer 1
10
44.554719
20
13.381872
70
0
0
VERTEX
8
Layer 1
10
44.512386
20
13.444843
70
0
0
VERTEX
8
Layer 1
10
44.538017
20
13.662066
70
0
0
VERTEX
8
Layer 1
10
44.753156
20
13.692757
70
0
0
VERTEX
8
Layer 1
10
44.817714
20
13.652012
70
0
0
VERTEX
8
Layer 1
10
45.328360
20
13.397218
70
0
0
VERTEX
8
Layer 1
10
45.567278
20
13.348535
70
0
0
VERTEX
8
Layer 1
10
45.718090
20
13.349064
70
0
0
VERTEX
8
Layer 1
10
45.956744
20
13.400129
70
0
0
VERTEX
8
Layer 1
10
46.464479
20
13.659685
70
0
0
VERTEX
8
Layer 1
10
46.528508
20
13.701489
70
0
0
VERTEX
8
Layer 1
10
46.744077
20
13.673046
70
0
0
VERTEX
8
Layer 1
10
46.771924
20
13.456485
70
0
0
VERTEX
8
Layer 1
10
46.747847
20
13.419972
70
0
0
VERTEX
8
Layer 1
10
46.730914
20
13.392720
70
0
0
VERTEX
8
Layer 1
10
46.730914
20
13.392720
70
0
0
SEQEND
8
Layer 1
0
POLYLINE
8
Layer 1
62
7
70
1
10
0.000000
20
0.000000
66
1
0
VERTEX
8
Layer 1
10
51.003929
20
40.692341
70
0
0
VERTEX
8
Layer 1
10
50.781415
20
41.007484
70
0
0
VERTEX
8
Layer 1
10
50.439045
20
41.112532
70
0
0
VERTEX
8
Layer 1
10
50.096674
20
41.007484
70
0
0
VERTEX
8
Layer 1
10
49.874160
20
40.692341
70
0
0
VERTEX
8
Layer 1
10
49.583615
20
39.913356
70
0
0
VERTEX
8
Layer 1
10
49.243659
20
39.427820
70
0
0
VERTEX
8
Layer 1
10
48.758050
20
39.087847
70
0
0
VERTEX
8
Layer 1
10
47.978952
20
38.797186
70
0
0
VERTEX
8
Layer 1
10
47.663883
20
38.574698
70
0
0
VERTEX
8
Layer 1
10
47.558860
20
38.232311
70
0
0
VERTEX
8
Layer 1
10
47.663883
20
37.889920
70
0
0
VERTEX
8
Layer 1
10
47.978952
20
37.667417
70
0
0
VERTEX
8
Layer 1
10
48.758050
20
37.376756
70
0
0
VERTEX
8
Layer 1
10
49.243659
20
37.036783
70
0
0
VERTEX
8
Layer 1
10
49.583615
20
36.551250
70
0
0
VERTEX
8
Layer 1
10
49.874160
20
35.772288
70
0
0
VERTEX
8
Layer 1
10
50.096674
20
35.457145
70
0
0
VERTEX
8
Layer 1
10
50.439045
20
35.352097
70
0
0
VERTEX
8
Layer 1
10
50.781415
20
35.457145
70
0
0
VERTEX
8
Layer 1
10
51.003929
20
35.772288
70
0
0
VERTEX
8
Layer 1
10
51.294706
20
36.551250
70
0
0
VERTEX
8
Layer 1
10
51.634695
20
37.036783
70
0
0
VERTEX
8
Layer 1
10
52.120172
20
37.376756
70
0
0
VERTEX
8
Layer 1
10
52.899138
20
37.667417
70
0
0
VERTEX
8
Layer 1
10
53.214206
20
37.889920
70
0
0
VERTEX
8
Layer 1
10
53.319229
20
38.232311
70
0
0
VERTEX
8
Layer 1
10
53.214206
20
38.574698
70
0
0
VERTEX
8
Layer 1
10
52.899138
20
38.797186
70
0
0
VERTEX
8
Layer 1
10
52.120172
20
39.087847
70
0
0
VERTEX
8
Layer 1
10
51.634695
20
39.427820
70
0
0
VERTEX
8
Layer 1
10
51.294706
20
39.913356
70
0
0
VERTEX
8
Layer 1
10
51.003929
20
40.692341
70
0
0
VERTEX
8
Layer 1
10
51.003929
20
40.692341
70
0
0
SEQEND
8
Layer 1
0
POLYLINE
8
Layer 1
62
7
70
1
10
0.000000
20
0.000000
66
1
0
VERTEX
8
Layer 1
10
49.898237
20
38.773109
70
0
0
VERTEX
8
Layer 1
10
50.439045
20
39.554687
70
0
0
VERTEX
8
Layer 1
10
50.979852
20
38.773109
70
0
0
VERTEX
8
Layer 1
10
51.761431
20
38.232301
70
0
0
VERTEX
8
Layer 1
10
50.979852
20
37.691494
70
0
0
VERTEX
8
Layer 1
10
50.439045
20
36.909916
70
0
0
VERTEX
8
Layer 1
10
49.898237
20
37.691494
70
0
0
VERTEX
8
Layer 1
10
49.116659
20
38.232301
70
0
0
VERTEX
8
Layer 1
10
49.898237
20
38.773109
70
0
0
VERTEX
8
Layer 1
10
49.898237
20
38.773109
70
0
0
SEQEND
8
Layer 1
0
POLYLINE
8
Layer 1
62
7
70
1
10
0.000000
20
0.000000
66
1
0
VERTEX
8
Layer 1
10
47.225684
20
35.581048
70
0
0
VERTEX
8
Layer 1
10
46.969568
20
35.076805
70
0
0
VERTEX
8
Layer 1
10
46.918768
20
34.840215
70
0
0
VERTEX
8
Layer 1
10
46.918768
20
34.679084
70
0
0
VERTEX
8
Layer 1
10
46.969568
20
34.441541
70
0
0
VERTEX
8
Layer 1
10
47.225684
20
33.938252
70
0
0
VERTEX
8
Layer 1
10
47.266959
20
33.874355
70
0
0
VERTEX
8
Layer 1
10
47.238880
20
33.657771
70
0
0
VERTEX
8
Layer 1
10
47.023278
20
33.629404
70
0
0
VERTEX
8
Layer 1
10
46.959514
20
33.671076
70
0
0
VERTEX
8
Layer 1
10
46.457071
20
33.928065
70
0
0
VERTEX
8
Layer 1
10
46.221327
20
33.978997
70
0
0
VERTEX
8
Layer 1
10
46.061254
20
33.978997
70
0
0
VERTEX
8
Layer 1
10
45.825511
20
33.928065
70
0
0
VERTEX
8
Layer 1
10
45.323068
20
33.671076
70
0
0
VERTEX
8
Layer 1
10
45.259833
20
33.629404
70
0
0
VERTEX
8
Layer 1
10
45.044032
20
33.657771
70
0
0
VERTEX
8
Layer 1
10
45.016152
20
33.874355
70
0
0
VERTEX
8
Layer 1
10
45.057427
20
33.938252
70
0
0
VERTEX
8
Layer 1
10
45.310632
20
34.436461
70
0
0
VERTEX
8
Layer 1
10
45.361432
20
34.670750
70
0
0
VERTEX
8
Layer 1
10
45.361168
20
34.840665
70
0
0
VERTEX
8
Layer 1
10
45.307987
20
35.074953
70
0
0
VERTEX
8
Layer 1
10
45.049489
20
35.570385
70
0
0
VERTEX
8
Layer 1
10
45.007420
20
35.633356
70
0
0
VERTEX
8
Layer 1
10
45.032953
20
35.850466
70
0
0
VERTEX
8
Layer 1
10
45.248191
20
35.881085
70
0
0
VERTEX
8
Layer 1
10
45.312485
20
35.840339
70
0
0
VERTEX
8
Layer 1
10
45.823130
20
35.585678
70
0
0
VERTEX
8
Layer 1
10
46.062048
20
35.537047
70
0
0
VERTEX
8
Layer 1
10
46.213125
20
35.537524
70
0
0
VERTEX
8
Layer 1
10
46.451514
20
35.588456
70
0
0
VERTEX
8
Layer 1
10
46.959514
20
35.848197
70
0
0
VERTEX
8
Layer 1
10
47.023278
20
35.889869
70
0
0
VERTEX
8
Layer 1
10
47.238880
20
35.861515
70
0
0
VERTEX
8
Layer 1
10
47.266959
20
35.644944
70
0
0
VERTEX
8
Layer 1
10
47.242882
20
35.608353
70
0
0
VERTEX
8
Layer 1
10
47.225684
20
35.581048
70
0
0
VERTEX
8
Layer 1
10
47.225684
20
35.581048
70
0
0
SEQEND
8
Layer 1
0
POLYLINE
8
Layer 1
62
7
70
1
10
0.000000
20
0.000000
66
1
0
VERTEX
8
Layer 1
10
49.967558
20
24.098569
70
0
0
VERTEX
8
Layer 1
10
63.235337
20
7.143799
70
0
0
VERTEX
8
Layer 1
10
56.127315
20
7.352026
70
0
0
VERTEX
8
Layer 1
10
43.279429
20
23.999350
70
0
0
VERTEX
8
Layer 1
10
55.599472
20
40.745840
70
0
0
VERTEX
8
Layer 1
10
62.375178
20
40.745840
70
0
0
VERTEX
8
Layer 1
10
49.967558
20
24.098569
70
0
0
VERTEX
8
Layer 1
10
49.967558
20
24.098569
70
0
0
SEQEND
8
Layer 1
0
POLYLINE
8
Layer 1
62
7
70
1
10
0.000000
20
0.000000
66
1
0
VERTEX
8
Layer 1
10
49.339173
20
12.540763
70
0
0
VERTEX
8
Layer 1
10
49.561729
20
12.855981
70
0
0
VERTEX
8
Layer 1
10
49.904190
20
12.961053
70
0
0
VERTEX
8
Layer 1
10
50.246652
20
12.855981
70
0
0
VERTEX
8
Layer 1
10
50.469207
20
12.540763
70
0
0
VERTEX
8
Layer 1
10
50.759752
20
11.761897
70
0
0
VERTEX
8
Layer 1
10
51.099709
20
11.276321
70
0
0
VERTEX
8
Layer 1
10
51.585284
20
10.936332
70
0
0
VERTEX
8
Layer 1
10
52.364151
20
10.645555
70
0
0
VERTEX
8
Layer 1
10
52.679368
20
10.423194
70
0
0
VERTEX
8
Layer 1
10
52.784441
20
10.080902
70
0
0
VERTEX
8
Layer 1
10
52.679368
20
9.738560
70
0
0
VERTEX
8
Layer 1
10
52.364151
20
9.516050
70
0
0
VERTEX
8
Layer 1
10
51.585284
20
9.225273
70
0
0
VERTEX
8
Layer 1
10
51.099709
20
8.885284
70
0
0
VERTEX
8
Layer 1
10
50.759752
20
8.399708
70
0
0
VERTEX
8
Layer 1
10
50.469207
20
7.620842
70
0
0
VERTEX
8
Layer 1
10
50.246652
20
7.305625
70
0
0
VERTEX
8
Layer 1
10
49.904190
20
7.200552
70
0
0
VERTEX
8
Layer 1
10
49.561729
20
7.305625
70
0
0
VERTEX
8
Layer 1
10
49.339173
20
7.620842
70
0
0
VERTEX
8
Layer 1
10
49.048760
20
8.399708
70
0
0
VERTEX
8
Layer 1
10
48.708937
20
8.885284
70
0
0
VERTEX
8
Layer 1
10
48.223328
20
9.225273
70
0
0
VERTEX
8
Layer 1
10
47.444230
20
9.516050
70
0
0
VERTEX
8
Layer 1
10
47.129161
20
9.738560
70
0
0
VERTEX
8
Layer 1
10
47.024138
20
10.080902
70
0
0
VERTEX
8
Layer 1
10
47.129161
20
10.423194
70
0
0
VERTEX
8
Layer 1
10
47.444230
20
10.645555
70
0
0
VERTEX
8
Layer 1
10
48.223328
20
10.936332
70
0
0
VERTEX
8
Layer 1
10
48.708937
20
11.276321
70
0
0
VERTEX
8
Layer 1
10
49.048760
20
11.761897
70
0
0
VERTEX
8
Layer 1
10
49.339173
20
12.540763
70
0
0
VERTEX
8
Layer 1
10
49.339173
20
12.540763
70
0
0
SEQEND
8
Layer 1
0
POLYLINE
8
Layer 1
62
7
70
1
10
0.000000
20
0.000000
66
1
0
VERTEX
8
Layer 1
10
40.888921
20
12.384924
70
0
0
VERTEX
8
Layer 1
10
41.523127
20
10.523847
70
0
0
VERTEX
8
Layer 1
10
42.843396
20
14.287540
70
0
0
VERTEX
8
Layer 1
10
43.592166
20
14.287540
70
0
0
VERTEX
8
Layer 1
10
41.876345
20
9.661042
70
0
0
VERTEX
8
Layer 1
10
41.876345
20
7.300961
70
0
0
VERTEX
8
Layer 1
10
41.138159
20
7.300961
70
0
0
VERTEX
8
Layer 1
10
41.138159
20
9.661042
70
0
0
VERTEX
8
Layer 1
10
39.422867
20
14.287540
70
0
0
VERTEX
8
Layer 1
10
40.181691
20
14.287540
70
0
0
VERTEX
8
Layer 1
10
40.888921
20
12.384924
70
0
0
VERTEX
8
Layer 1
10
40.888921
20
12.384924
70
0
0
SEQEND
8
Layer 1
0
POLYLINE
8
Layer 1
62
7
70
1
10
0.000000
20
0.000000
66
1
0
VERTEX
8
Layer 1
10
38.791572
20
7.352026
70
0
0
VERTEX
8
Layer 1
10
32.543709
20
7.352026
70
0
0
VERTEX
8
Layer 1
10
32.543709
20
40.745840
70
0
0
VERTEX
8
Layer 1
10
38.791572
20
40.745840
70
0
0
VERTEX
8
Layer 1
10
38.791572
20
7.352026
70
0
0
VERTEX
8
Layer 1
10
38.791572
20
7.352026
70
0
0
SEQEND
8
Layer 1
0
POLYLINE
8
Layer 1
62
7
70
1
10
0.000000
20
0.000000
66
1
0
VERTEX
8
Layer 1
10
49.904058
20
11.403321
70
0
0
VERTEX
8
Layer 1
10
49.363250
20
10.621743
70
0
0
VERTEX
8
Layer 1
10
48.581937
20
10.080935
70
0
0
VERTEX
8
Layer 1
10
49.363250
20
9.540127
70
0
0
VERTEX
8
Layer 1
10
49.904058
20
8.758549
70
0
0
VERTEX
8
Layer 1
10
50.445130
20
9.540127
70
0
0
VERTEX
8
Layer 1
10
51.226444
20
10.080935
70
0
0
VERTEX
8
Layer 1
10
50.445130
20
10.621743
70
0
0
VERTEX
8
Layer 1
10
49.904058
20
11.403321
70
0
0
VERTEX
8
Layer 1
10
49.904058
20
11.403321
70
0
0
SEQEND
8
Layer 1
0
POLYLINE
8
Layer 1
62
7
70
1
10
0.000000
20
0.000000
66
1
0
VERTEX
8
Layer 1
10
46.528243
20
13.701224
70
0
0
VERTEX
8
Layer 1
10
46.743846
20
13.673013
70
0
0
VERTEX
8
Layer 1
10
46.771924
20
13.456485
70
0
0
VERTEX
8
Layer 1
10
46.748112
20
13.419972
70
0
0
VERTEX
8
Layer 1
10
46.730914
20
13.392456
70
0
0
VERTEX
8
Layer 1
10
46.474798
20
12.888425
70
0
0
VERTEX
8
Layer 1
10
46.423733
20
12.651623
70
0
0
VERTEX
8
Layer 1
10
46.423733
20
12.490492
70
0
0
VERTEX
8
Layer 1
10
46.474798
20
12.253161
70
0
0
VERTEX
8
Layer 1
10
46.730914
20
11.749660
70
0
0
VERTEX
8
Layer 1
10
46.771924
20
11.685895
70
0
0
VERTEX
8
Layer 1
10
46.743945
20
11.469334
70
0
0
VERTEX
8
Layer 1
10
46.528243
20
11.440892
70
0
0
VERTEX
8
Layer 1
10
46.464479
20
11.482431
70
0
0
VERTEX
8
Layer 1
10
45.962300
20
11.739606
70
0
0
VERTEX
8
Layer 1
10
45.726557
20
11.790670
70
0
0
VERTEX
8
Layer 1
10
45.566484
20
11.790670
70
0
0
VERTEX
8
Layer 1
10
45.330741
20
11.739606
70
0
0
VERTEX
8
Layer 1
10
44.828298
20
11.482431
70
0
0
VERTEX
8
Layer 1
10
44.764798
20
11.440892
70
0
0
VERTEX
8
Layer 1
10
44.549130
20
11.469334
70
0
0
VERTEX
8
Layer 1
10
44.521381
20
11.685895
70
0
0
VERTEX
8
Layer 1
10
44.562656
20
11.749660
70
0
0
VERTEX
8
Layer 1
10
44.815862
20
12.247870
70
0
0
VERTEX
8
Layer 1
10
44.866662
20
12.482290
70
0
0
VERTEX
8
Layer 1
10
44.866133
20
12.652152
70
0
0
VERTEX
8
Layer 1
10
44.812952
20
12.886573
70
0
0
VERTEX
8
Layer 1
10
44.554719
20
13.381872
70
0
0
VERTEX
8
Layer 1
10
44.512386
20
13.444843
70
0
0
VERTEX
8
Layer 1
10
44.538116
20
13.661933
70
0
0
VERTEX
8
Layer 1
10
44.753156
20
13.692493
70
0
0
VERTEX
8
Layer 1
10
44.817714
20
13.652012
70
0
0
VERTEX
8
Layer 1
10
45.328360
20
13.397218
70
0
0
VERTEX
8
Layer 1
10
45.567278
20
13.348535
70
0
0
VERTEX
8
Layer 1
10
45.718090
20
13.349064
70
0
0
VERTEX
8
Layer 1
10
45.956480
20
13.400129
70
0
0
VERTEX
8
Layer 1
10
46.464479
20
13.659685
70
0
0
VERTEX
8
Layer 1
10
46.528243
20
13.701224
70
0
0
VERTEX
8
Layer 1
10
46.528243
20
13.701224
70
0
0
SEQEND
8
Layer 1
0
POLYLINE
8
Layer 1
62
7
70
1
10
0.000000
20
0.000000
66
1
0
VERTEX
8
Layer 1
10
43.208256
20
22.674107
70
0
0
VERTEX
8
Layer 1
10
40.701067
20
17.190809
70
0
0
VERTEX
8
Layer 1
10
43.168039
20
17.190809
70
0
0
VERTEX
8
Layer 1
10
43.168039
20
16.571420
70
0
0
VERTEX
8
Layer 1
10
39.952033
20
16.571420
70
0
0
VERTEX
8
Layer 1
10
39.952033
20
17.190809
70
0
0
VERTEX
8
Layer 1
10
42.449167
20
22.654210
70
0
0
VERTEX
8
Layer 1
10
40.001775
20
22.654210
70
0
0
VERTEX
8
Layer 1
10
40.001775
20
23.283362
70
0
0
VERTEX
8
Layer 1
10
43.208256
20
23.283362
70
0
0
VERTEX
8
Layer 1
10
43.208256
20
22.674107
70
0
0
VERTEX
8
Layer 1
10
43.208256
20
22.674107
70
0
0
SEQEND
8
Layer 1
0
POLYLINE
8
Layer 1
62
7
70
1
10
0.000000
20
0.000000
66
1
0
VERTEX
8
Layer 1
10
41.561756
20
29.675211
70
0
0
VERTEX
8
Layer 1
10
42.631200
20
32.279184
70
0
0
VERTEX
8
Layer 1
10
43.415689
20
32.279184
70
0
0
VERTEX
8
Layer 1
10
41.928468
20
28.861565
70
0
0
VERTEX
8
Layer 1
10
43.415689
20
25.444211
70
0
0
VERTEX
8
Layer 1
10
42.631200
20
25.444211
70
0
0
VERTEX
8
Layer 1
10
41.561756
20
28.037866
70
0
0
VERTEX
8
Layer 1
10
40.481993
20
25.444211
70
0
0
VERTEX
8
Layer 1
10
39.687450
20
25.444211
70
0
0
VERTEX
8
Layer 1
10
41.174671
20
28.861565
70
0
0
VERTEX
8
Layer 1
10
39.687450
20
32.279184
70
0
0
VERTEX
8
Layer 1
10
40.471939
20
32.279184
70
0
0
VERTEX
8
Layer 1
10
41.561756
20
29.675211
70
0
0
VERTEX
8
Layer 1
10
41.561756
20
29.675211
70
0
0
SEQEND
8
Layer 1
0
POLYLINE
8
Layer 1
62
7
70
1
10
0.000000
20
0.000000
66
1
0
VERTEX
8
Layer 1
10
47.023543
20
35.889816
70
0
0
VERTEX
8
Layer 1
10
47.238880
20
35.861420
70
0
0
VERTEX
8
Layer 1
10
47.266695
20
35.644865
70
0
0
VERTEX
8
Layer 1
10
47.242882
20
35.608432
70
0
0
VERTEX
8
Layer 1
10
47.225684
20
35.581048
70
0
0
VERTEX
8
Layer 1
10
46.969568
20
35.076699
70
0
0
VERTEX
8
Layer 1
10
46.918768
20
34.840268
70
0
0
VERTEX
8
Layer 1
10
46.918768
20
34.679058
70
0
0
VERTEX
8
Layer 1
10
46.969568
20
34.441594
70
0
0
VERTEX
8
Layer 1
10
47.225684
20
33.938252
70
0
0
VERTEX
8
Layer 1
10
47.266695
20
33.874434
70
0
0
VERTEX
8
Layer 1
10
47.238880
20
33.657873
70
0
0
VERTEX
8
Layer 1
10
47.023543
20
33.629510
70
0
0
VERTEX
8
Layer 1
10
46.959249
20
33.671102
70
0
0
VERTEX
8
Layer 1
10
46.457071
20
33.927933
70
0
0
VERTEX
8
Layer 1
10
46.221327
20
33.979077
70
0
0
VERTEX
8
Layer 1
10
46.061254
20
33.979077
70
0
0
VERTEX
8
Layer 1
10
45.825511
20
33.927933
70
0
0
VERTEX
8
Layer 1
10
45.323068
20
33.671102
70
0
0
VERTEX
8
Layer 1
10
45.259833
20
33.629510
70
0
0
VERTEX
8
Layer 1
10
45.043933
20
33.657863
70
0
0
VERTEX
8
Layer 1
10
45.016152
20
33.874434
70
0
0
VERTEX
8
Layer 1
10
45.057427
20
33.938252
70
0
0
VERTEX
8
Layer 1
10
45.310632
20
34.436435
70
0
0
VERTEX
8
Layer 1
10
45.361432
20
34.670776
70
0
0
VERTEX
8
Layer 1
10
45.360903
20
34.840533
70
0
0
VERTEX
8
Layer 1
10
45.307722
20
35.074874
70
0
0
VERTEX
8
Layer 1
10
45.049489
20
35.570464
70
0
0
VERTEX
8
Layer 1
10
45.007156
20
35.633250
70
0
0
VERTEX
8
Layer 1
10
45.032920
20
35.850367
70
0
0
VERTEX
8
Layer 1
10
45.248191
20
35.881032
70
0
0
VERTEX
8
Layer 1
10
45.312485
20
35.840207
70
0
0
VERTEX
8
Layer 1
10
45.823130
20
35.585704
70
0
0
VERTEX
8
Layer 1
10
46.062048
20
35.537127
70
0
0
VERTEX
8
Layer 1
10
46.213125
20
35.537391
70
0
0
VERTEX
8
Layer 1
10
46.451514
20
35.588562
70
0
0
VERTEX
8
Layer 1
10
46.959249
20
35.848223
70
0
0
VERTEX
8
Layer 1
10
47.023543
20
35.889816
70
0
0
VERTEX
8
Layer 1
10
47.023543
20
35.889816
70
0
0
SEQEND
8
Layer 1
0
POLYLINE
8
Layer 1
62
7
70
1
10
0.000000
20
0.000000
66
1
0
VERTEX
8
Layer 1
10
41.596681
20
40.481257
70
0
0
VERTEX
8
Layer 1
10
42.305267
20
40.377828
70
0
0
VERTEX
8
Layer 1
10
42.817202
20
40.067608
70
0
0
VERTEX
8
Layer 1
10
43.127492
20
39.588389
70
0
0
VERTEX
8
Layer 1
10
43.231010
20
38.957841
70
0
0
VERTEX
8
Layer 1
10
43.231010
20
37.958934
70
0
0
VERTEX
8
Layer 1
10
43.013986
20
37.061105
70
0
0
VERTEX
8
Layer 1
10
42.363178
20
36.546617
70
0
0
VERTEX
8
Layer 1
10
43.442677
20
33.701582
70
0
0
VERTEX
8
Layer 1
10
42.655807
20
33.701582
70
0
0
VERTEX
8
Layer 1
10
41.667060
20
36.425438
70
0
0
VERTEX
8
Layer 1
10
40.668259
20
36.425438
70
0
0
VERTEX
8
Layer 1
10
40.668259
20
33.701582
70
0
0
VERTEX
8
Layer 1
10
39.952033
20
33.701582
70
0
0
VERTEX
8
Layer 1
10
39.952033
20
40.481257
70
0
0
VERTEX
8
Layer 1
10
41.596681
20
40.481257
70
0
0
VERTEX
8
Layer 1
10
41.596681
20
40.481257
70
0
0
SEQEND
8
Layer 1
0
POLYLINE
8
Layer 1
62
7
70
1
10
0.000000
20
0.000000
66
1
0
VERTEX
8
Layer 1
10
49.874160
20
40.692368
70
0
0
VERTEX
8
Layer 1
10
50.096712
20
41.007481
70
0
0
VERTEX
8
Layer 1
10
50.439144
20
41.112519
70
0
0
VERTEX
8
Layer 1
10
50.781527
20
41.007481
70
0
0
VERTEX
8
Layer 1
10
51.003929
20
40.692368
70
0
0
VERTEX
8
Layer 1
10
51.294574
20
39.913412
70
0
0
VERTEX
8
Layer 1
10
51.634431
20
39.427846
70
0
0
VERTEX
8
Layer 1
10
52.120040
20
39.087834
70
0
0
VERTEX
8
Layer 1
10
52.899138
20
38.797133
70
0
0
VERTEX
8
Layer 1
10
53.214206
20
38.574662
70
0
0
VERTEX
8
Layer 1
10
53.319229
20
38.232315
70
0
0
VERTEX
8
Layer 1
10
53.214206
20
37.889967
70
0
0
VERTEX
8
Layer 1
10
52.899138
20
37.667496
70
0
0
VERTEX
8
Layer 1
10
52.120040
20
37.376796
70
0
0
VERTEX
8
Layer 1
10
51.634431
20
37.036783
70
0
0
VERTEX
8
Layer 1
10
51.294574
20
36.551217
70
0
0
VERTEX
8
Layer 1
10
51.003929
20
35.772262
70
0
0
VERTEX
8
Layer 1
10
50.781527
20
35.457119
70
0
0
VERTEX
8
Layer 1
10
50.439144
20
35.352071
70
0
0
VERTEX
8
Layer 1
10
50.096712
20
35.457119
70
0
0
VERTEX
8
Layer 1
10
49.874160
20
35.772262
70
0
0
VERTEX
8
Layer 1
10
49.583383
20
36.551237
70
0
0
VERTEX
8
Layer 1
10
49.243394
20
37.036783
70
0
0
VERTEX
8
Layer 1
10
48.757951
20
37.376786
70
0
0
VERTEX
8
Layer 1
10
47.979217
20
37.667496
70
0
0
VERTEX
8
Layer 1
10
47.663999
20
37.889967
70
0
0
VERTEX
8
Layer 1
10
47.558927
20
38.232315
70
0
0
VERTEX
8
Layer 1
10
47.663999
20
38.574662
70
0
0
VERTEX
8
Layer 1
10
47.979217
20
38.797133
70
0
0
VERTEX
8
Layer 1
10
48.757951
20
39.087834
70
0
0
VERTEX
8
Layer 1
10
49.243394
20
39.427846
70
0
0
VERTEX
8
Layer 1
10
49.583383
20
39.913392
70
0
0
VERTEX
8
Layer 1
10
49.874160
20
40.692368
70
0
0
VERTEX
8
Layer 1
10
49.874160
20
40.692368
70
0
0
SEQEND
8
Layer 1
0
POLYLINE
8
Layer 1
62
7
70
1
10
0.000000
20
0.000000
66
1
0
VERTEX
8
Layer 1
10
50.439045
20
39.554714
70
0
0
VERTEX
8
Layer 1
10
49.898237
20
38.773109
70
0
0
VERTEX
8
Layer 1
10
49.116659
20
38.232301
70
0
0
VERTEX
8
Layer 1
10
49.898237
20
37.691520
70
0
0
VERTEX
8
Layer 1
10
50.439045
20
36.909916
70
0
0
VERTEX
8
Layer 1
10
50.979852
20
37.691520
70
0
0
VERTEX
8
Layer 1
10
51.761431
20
38.232301
70
0
0
VERTEX
8
Layer 1
10
50.979852
20
38.773109
70
0
0
VERTEX
8
Layer 1
10
50.439045
20
39.554714
70
0
0
VERTEX
8
Layer 1
10
50.439045
20
39.554714
70
0
0
SEQEND
8
Layer 1
0
POLYLINE
8
Layer 1
62
7
70
1
10
0.000000
20
0.000000
66
1
0
VERTEX
8
Layer 1
10
40.668259
20
37.050991
70
0
0
VERTEX
8
Layer 1
10
41.566254
20
37.050991
70
0
0
VERTEX
8
Layer 1
10
42.277453
20
37.280501
70
0
0
VERTEX
8
Layer 1
10
42.514784
20
37.969015
70
0
0
VERTEX
8
Layer 1
10
42.514784
20
38.927626
70
0
0
VERTEX
8
Layer 1
10
42.277453
20
39.616140
70
0
0
VERTEX
8
Layer 1
10
41.566254
20
39.845649
70
0
0
VERTEX
8
Layer 1
10
40.668259
20
39.845649
70
0
0
VERTEX
8
Layer 1
10
40.668259
20
37.050991
70
0
0
VERTEX
8
Layer 1
10
40.668259
20
37.050991
70
0
0
SEQEND
8
Layer 1
 0 
ENDSEC
 0 
EOF